%TF.GenerationSoftware,KiCad,Pcbnew,8.0.5*%
%TF.CreationDate,2025-03-10T18:40:23-05:00*%
%TF.ProjectId,24-10Vboard,32342d31-3056-4626-9f61-72642e6b6963,rev?*%
%TF.SameCoordinates,Original*%
%TF.FileFunction,Copper,L2,Bot*%
%TF.FilePolarity,Positive*%
%FSLAX46Y46*%
G04 Gerber Fmt 4.6, Leading zero omitted, Abs format (unit mm)*
G04 Created by KiCad (PCBNEW 8.0.5) date 2025-03-10 18:40:23*
%MOMM*%
%LPD*%
G01*
G04 APERTURE LIST*
%TA.AperFunction,ComponentPad*%
%ADD10C,1.950000*%
%TD*%
%TA.AperFunction,ComponentPad*%
%ADD11C,1.600000*%
%TD*%
%TA.AperFunction,ViaPad*%
%ADD12C,0.600000*%
%TD*%
G04 APERTURE END LIST*
D10*
%TO.P,Vin1,1,Pin_1*%
%TO.N,GND*%
X155250000Y-108000000D03*
%TO.P,Vin1,2,Pin_2*%
%TO.N,+24V*%
X155250000Y-113000000D03*
%TD*%
D11*
%TO.P,C2,1*%
%TO.N,GND*%
X179900000Y-109250000D03*
%TO.P,C2,2*%
%TO.N,+10V*%
X179900000Y-111750000D03*
%TD*%
D10*
%TO.P,Vout1,1,Pin_1*%
%TO.N,GND*%
X189350000Y-107900000D03*
%TO.P,Vout1,2,Pin_2*%
%TO.N,+10V*%
X189350000Y-112900000D03*
%TD*%
D11*
%TO.P,C1,1*%
%TO.N,GND*%
X163700000Y-109600000D03*
%TO.P,C1,2*%
%TO.N,+24V*%
X163700000Y-111600000D03*
%TD*%
D12*
%TO.N,GND*%
X171500000Y-108600000D03*
X170360000Y-114900000D03*
X171500000Y-114900000D03*
%TD*%
%TA.AperFunction,Conductor*%
%TO.N,GND*%
G36*
X193342795Y-104819819D02*
G01*
X193388673Y-104872516D01*
X193400000Y-104924291D01*
X193400000Y-116676000D01*
X193380315Y-116743039D01*
X193327511Y-116788794D01*
X193276000Y-116800000D01*
X150922963Y-116800000D01*
X150855924Y-116780315D01*
X150810169Y-116727511D01*
X150798967Y-116677042D01*
X150768067Y-112999994D01*
X153769443Y-112999994D01*
X153769443Y-113000005D01*
X153789634Y-113243683D01*
X153789636Y-113243695D01*
X153849663Y-113480734D01*
X153947888Y-113704666D01*
X154081632Y-113909378D01*
X154247242Y-114089277D01*
X154247252Y-114089286D01*
X154311732Y-114139473D01*
X154440212Y-114239473D01*
X154655267Y-114355855D01*
X154655270Y-114355856D01*
X154886541Y-114435251D01*
X154886543Y-114435251D01*
X154886545Y-114435252D01*
X155127737Y-114475500D01*
X155127738Y-114475500D01*
X155372262Y-114475500D01*
X155372263Y-114475500D01*
X155613455Y-114435252D01*
X155844733Y-114355855D01*
X156059788Y-114239473D01*
X156252754Y-114089281D01*
X156418368Y-113909377D01*
X156552111Y-113704667D01*
X156650336Y-113480736D01*
X156710364Y-113243692D01*
X156718650Y-113143695D01*
X156730557Y-113000005D01*
X156730557Y-112999994D01*
X156710365Y-112756316D01*
X156710363Y-112756304D01*
X156670793Y-112600047D01*
X156650336Y-112519264D01*
X156552111Y-112295333D01*
X156418368Y-112090623D01*
X156418367Y-112090621D01*
X156252757Y-111910722D01*
X156252747Y-111910713D01*
X156059791Y-111760529D01*
X156059787Y-111760526D01*
X155844734Y-111644145D01*
X155844729Y-111644143D01*
X155716138Y-111599998D01*
X162394532Y-111599998D01*
X162394532Y-111600001D01*
X162414364Y-111826686D01*
X162414366Y-111826697D01*
X162473258Y-112046488D01*
X162473261Y-112046497D01*
X162569431Y-112252732D01*
X162569432Y-112252734D01*
X162699954Y-112439141D01*
X162860858Y-112600045D01*
X162860861Y-112600047D01*
X163047266Y-112730568D01*
X163253504Y-112826739D01*
X163473308Y-112885635D01*
X163635230Y-112899801D01*
X163699998Y-112905468D01*
X163700000Y-112905468D01*
X163700002Y-112905468D01*
X163762568Y-112899994D01*
X163926692Y-112885635D01*
X164146496Y-112826739D01*
X164352734Y-112730568D01*
X164539139Y-112600047D01*
X164700047Y-112439139D01*
X164830568Y-112252734D01*
X164926739Y-112046496D01*
X164985635Y-111826692D01*
X164992345Y-111749998D01*
X178594532Y-111749998D01*
X178594532Y-111750001D01*
X178614364Y-111976686D01*
X178614366Y-111976697D01*
X178673258Y-112196488D01*
X178673261Y-112196497D01*
X178769431Y-112402732D01*
X178769432Y-112402734D01*
X178899954Y-112589141D01*
X179060858Y-112750045D01*
X179060861Y-112750047D01*
X179247266Y-112880568D01*
X179453504Y-112976739D01*
X179673308Y-113035635D01*
X179835230Y-113049801D01*
X179899998Y-113055468D01*
X179900000Y-113055468D01*
X179900002Y-113055468D01*
X179956673Y-113050509D01*
X180126692Y-113035635D01*
X180346496Y-112976739D01*
X180511075Y-112899994D01*
X187869443Y-112899994D01*
X187869443Y-112900005D01*
X187889634Y-113143683D01*
X187889636Y-113143695D01*
X187949663Y-113380734D01*
X188047888Y-113604666D01*
X188181632Y-113809378D01*
X188347242Y-113989277D01*
X188347252Y-113989286D01*
X188475732Y-114089286D01*
X188540212Y-114139473D01*
X188755267Y-114255855D01*
X188755270Y-114255856D01*
X188986541Y-114335251D01*
X188986543Y-114335251D01*
X188986545Y-114335252D01*
X189227737Y-114375500D01*
X189227738Y-114375500D01*
X189472262Y-114375500D01*
X189472263Y-114375500D01*
X189713455Y-114335252D01*
X189944733Y-114255855D01*
X190159788Y-114139473D01*
X190352754Y-113989281D01*
X190518368Y-113809377D01*
X190652111Y-113604667D01*
X190750336Y-113380736D01*
X190810364Y-113143692D01*
X190810365Y-113143683D01*
X190830557Y-112900005D01*
X190830557Y-112899994D01*
X190810365Y-112656316D01*
X190810363Y-112656304D01*
X190775660Y-112519265D01*
X190750336Y-112419264D01*
X190652111Y-112195333D01*
X190554872Y-112046497D01*
X190518367Y-111990621D01*
X190352757Y-111810722D01*
X190352747Y-111810713D01*
X190159791Y-111660529D01*
X190159787Y-111660526D01*
X189944734Y-111544145D01*
X189944729Y-111544143D01*
X189713458Y-111464748D01*
X189532561Y-111434562D01*
X189472263Y-111424500D01*
X189227737Y-111424500D01*
X189179498Y-111432549D01*
X188986541Y-111464748D01*
X188755270Y-111544143D01*
X188755265Y-111544145D01*
X188540212Y-111660526D01*
X188540208Y-111660529D01*
X188347252Y-111810713D01*
X188347242Y-111810722D01*
X188181632Y-111990621D01*
X188047888Y-112195333D01*
X187949663Y-112419265D01*
X187889636Y-112656304D01*
X187889634Y-112656316D01*
X187869443Y-112899994D01*
X180511075Y-112899994D01*
X180552734Y-112880568D01*
X180739139Y-112750047D01*
X180900047Y-112589139D01*
X181030568Y-112402734D01*
X181126739Y-112196496D01*
X181185635Y-111976692D01*
X181205468Y-111750000D01*
X181185635Y-111523308D01*
X181126739Y-111303504D01*
X181030568Y-111097266D01*
X180900047Y-110910861D01*
X180900045Y-110910858D01*
X180739141Y-110749954D01*
X180552734Y-110619432D01*
X180552730Y-110619430D01*
X180537022Y-110612105D01*
X180484583Y-110565931D01*
X180465433Y-110498737D01*
X180485650Y-110431857D01*
X180537028Y-110387340D01*
X180552481Y-110380134D01*
X180625471Y-110329024D01*
X179946447Y-109650000D01*
X179952661Y-109650000D01*
X180054394Y-109622741D01*
X180145606Y-109570080D01*
X180220080Y-109495606D01*
X180272741Y-109404394D01*
X180300000Y-109302661D01*
X180300000Y-109296447D01*
X180979024Y-109975471D01*
X181030136Y-109902478D01*
X181126264Y-109696331D01*
X181126269Y-109696317D01*
X181185139Y-109476610D01*
X181185141Y-109476599D01*
X181204966Y-109250002D01*
X181204966Y-109249997D01*
X181185141Y-109023400D01*
X181185139Y-109023389D01*
X181126269Y-108803682D01*
X181126264Y-108803668D01*
X181030136Y-108597521D01*
X181030132Y-108597513D01*
X180979025Y-108524526D01*
X180300000Y-109203551D01*
X180300000Y-109197339D01*
X180272741Y-109095606D01*
X180220080Y-109004394D01*
X180145606Y-108929920D01*
X180054394Y-108877259D01*
X179952661Y-108850000D01*
X179946448Y-108850000D01*
X180625472Y-108170974D01*
X180552478Y-108119863D01*
X180346331Y-108023735D01*
X180346317Y-108023730D01*
X180126610Y-107964860D01*
X180126599Y-107964858D01*
X179900002Y-107945034D01*
X179899998Y-107945034D01*
X179673400Y-107964858D01*
X179673389Y-107964860D01*
X179453682Y-108023730D01*
X179453673Y-108023734D01*
X179247516Y-108119866D01*
X179247512Y-108119868D01*
X179174526Y-108170973D01*
X179174526Y-108170974D01*
X179853553Y-108850000D01*
X179847339Y-108850000D01*
X179745606Y-108877259D01*
X179654394Y-108929920D01*
X179579920Y-109004394D01*
X179527259Y-109095606D01*
X179500000Y-109197339D01*
X179500000Y-109203552D01*
X178820974Y-108524526D01*
X178820973Y-108524526D01*
X178769868Y-108597512D01*
X178769866Y-108597516D01*
X178673734Y-108803673D01*
X178673730Y-108803682D01*
X178614860Y-109023389D01*
X178614858Y-109023400D01*
X178595034Y-109249997D01*
X178595034Y-109250002D01*
X178614858Y-109476599D01*
X178614860Y-109476610D01*
X178673730Y-109696317D01*
X178673735Y-109696331D01*
X178769863Y-109902478D01*
X178820974Y-109975472D01*
X179500000Y-109296446D01*
X179500000Y-109302661D01*
X179527259Y-109404394D01*
X179579920Y-109495606D01*
X179654394Y-109570080D01*
X179745606Y-109622741D01*
X179847339Y-109650000D01*
X179853553Y-109650000D01*
X179174526Y-110329025D01*
X179247513Y-110380132D01*
X179247515Y-110380133D01*
X179262973Y-110387341D01*
X179315413Y-110433513D01*
X179334566Y-110500706D01*
X179314351Y-110567587D01*
X179262979Y-110612104D01*
X179247270Y-110619429D01*
X179247265Y-110619432D01*
X179060858Y-110749954D01*
X178899954Y-110910858D01*
X178769432Y-111097265D01*
X178769431Y-111097267D01*
X178673261Y-111303502D01*
X178673258Y-111303511D01*
X178614366Y-111523302D01*
X178614364Y-111523313D01*
X178594532Y-111749998D01*
X164992345Y-111749998D01*
X165005468Y-111600000D01*
X164985635Y-111373308D01*
X164926739Y-111153504D01*
X164830568Y-110947266D01*
X164700047Y-110760861D01*
X164700045Y-110760858D01*
X164539141Y-110599954D01*
X164352734Y-110469432D01*
X164352732Y-110469431D01*
X164146497Y-110373261D01*
X164141992Y-110372054D01*
X164086408Y-110339961D01*
X163746448Y-110000000D01*
X163752661Y-110000000D01*
X163854394Y-109972741D01*
X163945606Y-109920080D01*
X164020080Y-109845606D01*
X164072741Y-109754394D01*
X164100000Y-109652661D01*
X164100000Y-109646447D01*
X164779024Y-110325471D01*
X164830136Y-110252478D01*
X164926264Y-110046331D01*
X164926269Y-110046317D01*
X164985139Y-109826610D01*
X164985141Y-109826599D01*
X165004966Y-109600002D01*
X165004966Y-109599997D01*
X164985141Y-109373400D01*
X164985139Y-109373389D01*
X164926269Y-109153682D01*
X164926264Y-109153668D01*
X164830136Y-108947521D01*
X164830132Y-108947513D01*
X164779025Y-108874526D01*
X164100000Y-109553551D01*
X164100000Y-109547339D01*
X164072741Y-109445606D01*
X164020080Y-109354394D01*
X163945606Y-109279920D01*
X163854394Y-109227259D01*
X163752661Y-109200000D01*
X163746448Y-109200000D01*
X164425472Y-108520974D01*
X164352478Y-108469863D01*
X164146331Y-108373735D01*
X164146317Y-108373730D01*
X163926610Y-108314860D01*
X163926599Y-108314858D01*
X163700002Y-108295034D01*
X163699998Y-108295034D01*
X163473400Y-108314858D01*
X163473389Y-108314860D01*
X163253682Y-108373730D01*
X163253673Y-108373734D01*
X163047516Y-108469866D01*
X163047512Y-108469868D01*
X162974526Y-108520973D01*
X162974526Y-108520974D01*
X163653553Y-109200000D01*
X163647339Y-109200000D01*
X163545606Y-109227259D01*
X163454394Y-109279920D01*
X163379920Y-109354394D01*
X163327259Y-109445606D01*
X163300000Y-109547339D01*
X163300000Y-109553552D01*
X162620974Y-108874526D01*
X162620973Y-108874526D01*
X162569868Y-108947512D01*
X162569866Y-108947516D01*
X162473734Y-109153673D01*
X162473730Y-109153682D01*
X162414860Y-109373389D01*
X162414858Y-109373400D01*
X162395034Y-109599997D01*
X162395034Y-109600002D01*
X162414858Y-109826599D01*
X162414860Y-109826610D01*
X162473730Y-110046317D01*
X162473735Y-110046331D01*
X162569863Y-110252478D01*
X162620974Y-110325472D01*
X163300000Y-109646446D01*
X163300000Y-109652661D01*
X163327259Y-109754394D01*
X163379920Y-109845606D01*
X163454394Y-109920080D01*
X163545606Y-109972741D01*
X163647339Y-110000000D01*
X163653553Y-110000000D01*
X163313590Y-110339961D01*
X163258012Y-110372052D01*
X163253508Y-110373259D01*
X163253503Y-110373260D01*
X163047267Y-110469431D01*
X163047265Y-110469432D01*
X162860858Y-110599954D01*
X162699954Y-110760858D01*
X162569432Y-110947265D01*
X162569431Y-110947267D01*
X162473261Y-111153502D01*
X162473258Y-111153511D01*
X162414366Y-111373302D01*
X162414364Y-111373313D01*
X162394532Y-111599998D01*
X155716138Y-111599998D01*
X155613458Y-111564748D01*
X155432561Y-111534562D01*
X155372263Y-111524500D01*
X155127737Y-111524500D01*
X155079498Y-111532549D01*
X154886541Y-111564748D01*
X154655270Y-111644143D01*
X154655265Y-111644145D01*
X154440212Y-111760526D01*
X154440208Y-111760529D01*
X154247252Y-111910713D01*
X154247242Y-111910722D01*
X154081632Y-112090621D01*
X153947888Y-112295333D01*
X153849663Y-112519265D01*
X153789636Y-112756304D01*
X153789634Y-112756316D01*
X153769443Y-112999994D01*
X150768067Y-112999994D01*
X150746112Y-110387340D01*
X150726050Y-107999994D01*
X153769945Y-107999994D01*
X153769945Y-108000005D01*
X153790130Y-108243605D01*
X153850138Y-108480573D01*
X153948330Y-108704429D01*
X154044626Y-108851819D01*
X154648958Y-108247487D01*
X154673978Y-108307890D01*
X154745112Y-108414351D01*
X154835649Y-108504888D01*
X154942110Y-108576022D01*
X155002511Y-108601041D01*
X154397758Y-109205794D01*
X154397758Y-109205796D01*
X154440478Y-109239046D01*
X154440484Y-109239050D01*
X154655468Y-109355394D01*
X154655476Y-109355397D01*
X154886664Y-109434765D01*
X155127779Y-109475000D01*
X155372221Y-109475000D01*
X155613335Y-109434765D01*
X155844523Y-109355397D01*
X155844531Y-109355394D01*
X156059514Y-109239051D01*
X156059514Y-109239050D01*
X156102240Y-109205795D01*
X156102240Y-109205794D01*
X155497488Y-108601041D01*
X155557890Y-108576022D01*
X155664351Y-108504888D01*
X155754888Y-108414351D01*
X155826022Y-108307890D01*
X155851041Y-108247488D01*
X156455372Y-108851819D01*
X156551667Y-108704431D01*
X156551672Y-108704423D01*
X156649861Y-108480573D01*
X156709869Y-108243605D01*
X156730055Y-108000005D01*
X156730055Y-107999994D01*
X156721768Y-107899994D01*
X187869945Y-107899994D01*
X187869945Y-107900005D01*
X187890130Y-108143605D01*
X187950138Y-108380573D01*
X188048330Y-108604429D01*
X188144626Y-108751819D01*
X188748958Y-108147487D01*
X188773978Y-108207890D01*
X188845112Y-108314351D01*
X188935649Y-108404888D01*
X189042110Y-108476022D01*
X189102511Y-108501041D01*
X188497758Y-109105794D01*
X188497758Y-109105796D01*
X188540478Y-109139046D01*
X188540484Y-109139050D01*
X188755468Y-109255394D01*
X188755476Y-109255397D01*
X188986664Y-109334765D01*
X189227779Y-109375000D01*
X189472221Y-109375000D01*
X189713335Y-109334765D01*
X189944523Y-109255397D01*
X189944531Y-109255394D01*
X190159514Y-109139051D01*
X190159514Y-109139050D01*
X190202240Y-109105795D01*
X190202240Y-109105794D01*
X189597488Y-108501041D01*
X189657890Y-108476022D01*
X189764351Y-108404888D01*
X189854888Y-108314351D01*
X189926022Y-108207890D01*
X189951041Y-108147488D01*
X190555372Y-108751819D01*
X190651667Y-108604431D01*
X190651672Y-108604423D01*
X190749861Y-108380573D01*
X190809869Y-108143605D01*
X190830055Y-107900005D01*
X190830055Y-107899994D01*
X190809869Y-107656394D01*
X190749861Y-107419426D01*
X190651669Y-107195570D01*
X190555372Y-107048179D01*
X189951041Y-107652510D01*
X189926022Y-107592110D01*
X189854888Y-107485649D01*
X189764351Y-107395112D01*
X189657890Y-107323978D01*
X189597487Y-107298958D01*
X190202240Y-106694204D01*
X190202240Y-106694203D01*
X190159514Y-106660949D01*
X189944531Y-106544605D01*
X189944523Y-106544602D01*
X189713335Y-106465234D01*
X189472221Y-106425000D01*
X189227779Y-106425000D01*
X188986664Y-106465234D01*
X188755476Y-106544602D01*
X188755468Y-106544605D01*
X188540481Y-106660951D01*
X188497758Y-106694202D01*
X188497757Y-106694204D01*
X189102511Y-107298958D01*
X189042110Y-107323978D01*
X188935649Y-107395112D01*
X188845112Y-107485649D01*
X188773978Y-107592110D01*
X188748958Y-107652511D01*
X188144626Y-107048179D01*
X188048328Y-107195575D01*
X187950138Y-107419426D01*
X187890130Y-107656394D01*
X187869945Y-107899994D01*
X156721768Y-107899994D01*
X156709869Y-107756394D01*
X156649861Y-107519426D01*
X156551669Y-107295570D01*
X156455372Y-107148179D01*
X155851041Y-107752510D01*
X155826022Y-107692110D01*
X155754888Y-107585649D01*
X155664351Y-107495112D01*
X155557890Y-107423978D01*
X155497487Y-107398958D01*
X156102240Y-106794204D01*
X156102240Y-106794203D01*
X156059514Y-106760949D01*
X155844531Y-106644605D01*
X155844523Y-106644602D01*
X155613335Y-106565234D01*
X155372221Y-106525000D01*
X155127779Y-106525000D01*
X154886664Y-106565234D01*
X154655476Y-106644602D01*
X154655468Y-106644605D01*
X154440481Y-106760951D01*
X154397758Y-106794202D01*
X154397757Y-106794204D01*
X155002511Y-107398958D01*
X154942110Y-107423978D01*
X154835649Y-107495112D01*
X154745112Y-107585649D01*
X154673978Y-107692110D01*
X154648958Y-107752511D01*
X154044626Y-107148179D01*
X153948328Y-107295575D01*
X153850138Y-107519426D01*
X153790130Y-107756394D01*
X153769945Y-107999994D01*
X150726050Y-107999994D01*
X150701048Y-105024747D01*
X150720169Y-104957546D01*
X150772587Y-104911349D01*
X150824750Y-104899707D01*
X193275710Y-104800291D01*
X193342795Y-104819819D01*
G37*
%TD.AperFunction*%
%TD*%
M02*
