%TF.GenerationSoftware,KiCad,Pcbnew,8.0.5*%
%TF.CreationDate,2025-03-10T18:40:23-05:00*%
%TF.ProjectId,24-10Vboard,32342d31-3056-4626-9f61-72642e6b6963,rev?*%
%TF.SameCoordinates,Original*%
%TF.FileFunction,Legend,Top*%
%TF.FilePolarity,Positive*%
%FSLAX46Y46*%
G04 Gerber Fmt 4.6, Leading zero omitted, Abs format (unit mm)*
G04 Created by KiCad (PCBNEW 8.0.5) date 2025-03-10 18:40:23*
%MOMM*%
%LPD*%
G01*
G04 APERTURE LIST*
%ADD10C,0.120000*%
%ADD11C,0.200000*%
%ADD12C,0.400000*%
G04 APERTURE END LIST*
D10*
%TO.C,R1501JxxxB-T1-FE1*%
X168050000Y-106750000D02*
X168050000Y-113170000D01*
X168050000Y-113170000D02*
X168520000Y-113170000D01*
X174950000Y-106750000D02*
X174950000Y-113170000D01*
X174950000Y-113170000D02*
X174480000Y-113170000D01*
X168530000Y-114600000D02*
X168200000Y-114840000D01*
X168200000Y-114360000D01*
X168530000Y-114600000D01*
G36*
X168530000Y-114600000D02*
G01*
X168200000Y-114840000D01*
X168200000Y-114360000D01*
X168530000Y-114600000D01*
G37*
D11*
%TO.C,Vin1*%
X151150000Y-105400000D02*
X158850000Y-105400000D01*
X151150000Y-115600000D02*
X151150000Y-105400000D01*
X158850000Y-105400000D02*
X158850000Y-115600000D01*
X158850000Y-115600000D02*
X151150000Y-115600000D01*
D12*
X156750000Y-107100000D02*
G75*
G02*
X156550000Y-107100000I-100000J0D01*
G01*
X156550000Y-107100000D02*
G75*
G02*
X156750000Y-107100000I100000J0D01*
G01*
D10*
%TO.C,C2*%
X183170000Y-110500000D02*
G75*
G02*
X176630000Y-110500000I-3270000J0D01*
G01*
X176630000Y-110500000D02*
G75*
G02*
X183170000Y-110500000I3270000J0D01*
G01*
D11*
%TO.C,Vout1*%
X185250000Y-105300000D02*
X192950000Y-105300000D01*
X185250000Y-115500000D02*
X185250000Y-105300000D01*
X192950000Y-105300000D02*
X192950000Y-115500000D01*
X192950000Y-115500000D02*
X185250000Y-115500000D01*
D12*
X190850000Y-107000000D02*
G75*
G02*
X190650000Y-107000000I-100000J0D01*
G01*
X190650000Y-107000000D02*
G75*
G02*
X190850000Y-107000000I100000J0D01*
G01*
D10*
%TO.C,C1*%
X166320000Y-110600000D02*
G75*
G02*
X161080000Y-110600000I-2620000J0D01*
G01*
X161080000Y-110600000D02*
G75*
G02*
X166320000Y-110600000I2620000J0D01*
G01*
%TD*%
M02*
