%TF.GenerationSoftware,KiCad,Pcbnew,8.0.5*%
%TF.CreationDate,2025-03-10T18:40:23-05:00*%
%TF.ProjectId,24-10Vboard,32342d31-3056-4626-9f61-72642e6b6963,rev?*%
%TF.SameCoordinates,Original*%
%TF.FileFunction,Copper,L1,Top*%
%TF.FilePolarity,Positive*%
%FSLAX46Y46*%
G04 Gerber Fmt 4.6, Leading zero omitted, Abs format (unit mm)*
G04 Created by KiCad (PCBNEW 8.0.5) date 2025-03-10 18:40:23*
%MOMM*%
%LPD*%
G01*
G04 APERTURE LIST*
G04 Aperture macros list*
%AMRoundRect*
0 Rectangle with rounded corners*
0 $1 Rounding radius*
0 $2 $3 $4 $5 $6 $7 $8 $9 X,Y pos of 4 corners*
0 Add a 4 corners polygon primitive as box body*
4,1,4,$2,$3,$4,$5,$6,$7,$8,$9,$2,$3,0*
0 Add four circle primitives for the rounded corners*
1,1,$1+$1,$2,$3*
1,1,$1+$1,$4,$5*
1,1,$1+$1,$6,$7*
1,1,$1+$1,$8,$9*
0 Add four rect primitives between the rounded corners*
20,1,$1+$1,$2,$3,$4,$5,0*
20,1,$1+$1,$4,$5,$6,$7,0*
20,1,$1+$1,$6,$7,$8,$9,0*
20,1,$1+$1,$8,$9,$2,$3,0*%
G04 Aperture macros list end*
%TA.AperFunction,SMDPad,CuDef*%
%ADD10RoundRect,0.200000X0.200000X-0.900000X0.200000X0.900000X-0.200000X0.900000X-0.200000X-0.900000X0*%
%TD*%
%TA.AperFunction,SMDPad,CuDef*%
%ADD11RoundRect,0.250000X1.125000X-1.275000X1.125000X1.275000X-1.125000X1.275000X-1.125000X-1.275000X0*%
%TD*%
%TA.AperFunction,SMDPad,CuDef*%
%ADD12RoundRect,0.249997X2.650003X-2.950003X2.650003X2.950003X-2.650003X2.950003X-2.650003X-2.950003X0*%
%TD*%
%TA.AperFunction,ComponentPad*%
%ADD13C,1.950000*%
%TD*%
%TA.AperFunction,ComponentPad*%
%ADD14C,1.600000*%
%TD*%
%TA.AperFunction,ViaPad*%
%ADD15C,0.600000*%
%TD*%
%TA.AperFunction,Conductor*%
%ADD16C,0.200000*%
%TD*%
G04 APERTURE END LIST*
D10*
%TO.P,R1501JxxxB-T1-FE1,1,Vdd*%
%TO.N,+24V*%
X169220000Y-114900000D03*
%TO.P,R1501JxxxB-T1-FE1,2,GND*%
%TO.N,GND*%
X170360000Y-114900000D03*
%TO.P,R1501JxxxB-T1-FE1,3,GND*%
X171500000Y-114900000D03*
D11*
X169975000Y-110275000D03*
X173025000Y-110275000D03*
D12*
X171500000Y-108600000D03*
D11*
X169975000Y-106925000D03*
X173025000Y-106925000D03*
D10*
%TO.P,R1501JxxxB-T1-FE1,4,CE*%
%TO.N,+24V*%
X172640000Y-114900000D03*
%TO.P,R1501JxxxB-T1-FE1,5,Vout*%
%TO.N,+10V*%
X173780000Y-114900000D03*
%TD*%
D13*
%TO.P,Vin1,1,Pin_1*%
%TO.N,GND*%
X155250000Y-108000000D03*
%TO.P,Vin1,2,Pin_2*%
%TO.N,+24V*%
X155250000Y-113000000D03*
%TD*%
D14*
%TO.P,C2,1*%
%TO.N,GND*%
X179900000Y-109250000D03*
%TO.P,C2,2*%
%TO.N,+10V*%
X179900000Y-111750000D03*
%TD*%
D13*
%TO.P,Vout1,1,Pin_1*%
%TO.N,GND*%
X189350000Y-107900000D03*
%TO.P,Vout1,2,Pin_2*%
%TO.N,+10V*%
X189350000Y-112900000D03*
%TD*%
D14*
%TO.P,C1,1*%
%TO.N,GND*%
X163700000Y-109600000D03*
%TO.P,C1,2*%
%TO.N,+24V*%
X163700000Y-111600000D03*
%TD*%
D15*
%TO.N,GND*%
X171500000Y-108600000D03*
X170360000Y-114900000D03*
X171500000Y-114900000D03*
%TD*%
D16*
%TO.N,+24V*%
X172640000Y-116160000D02*
X172640000Y-114900000D01*
X169220000Y-114900000D02*
X165920000Y-111600000D01*
X165920000Y-111600000D02*
X163700000Y-111600000D01*
X169220000Y-114900000D02*
X169220000Y-116000000D01*
X172500000Y-116300000D02*
X172640000Y-116160000D01*
X169220000Y-116000000D02*
X169520000Y-116300000D01*
X169520000Y-116300000D02*
X172500000Y-116300000D01*
%TO.N,+10V*%
X173780000Y-114900000D02*
X176930000Y-111750000D01*
X179900000Y-111750000D02*
X188200000Y-111750000D01*
X176930000Y-111750000D02*
X179900000Y-111750000D01*
X188200000Y-111750000D02*
X189350000Y-112900000D01*
%TD*%
%TA.AperFunction,Conductor*%
%TO.N,+24V*%
G36*
X167143039Y-105119685D02*
G01*
X167188794Y-105172489D01*
X167200000Y-105224000D01*
X167200000Y-116075227D01*
X167180315Y-116142266D01*
X167127511Y-116188021D01*
X167075230Y-116199225D01*
X151219914Y-116100744D01*
X151152998Y-116080643D01*
X151107572Y-116027556D01*
X151096730Y-115980130D01*
X151015454Y-112999994D01*
X153769945Y-112999994D01*
X153769945Y-113000005D01*
X153790130Y-113243605D01*
X153850138Y-113480573D01*
X153948330Y-113704429D01*
X154044626Y-113851819D01*
X154648958Y-113247487D01*
X154673978Y-113307890D01*
X154745112Y-113414351D01*
X154835649Y-113504888D01*
X154942110Y-113576022D01*
X155002511Y-113601041D01*
X154397758Y-114205794D01*
X154397758Y-114205796D01*
X154440478Y-114239046D01*
X154440484Y-114239050D01*
X154655468Y-114355394D01*
X154655476Y-114355397D01*
X154886664Y-114434765D01*
X155127779Y-114475000D01*
X155372221Y-114475000D01*
X155613335Y-114434765D01*
X155844523Y-114355397D01*
X155844531Y-114355394D01*
X156059514Y-114239051D01*
X156059514Y-114239050D01*
X156102240Y-114205795D01*
X156102240Y-114205794D01*
X155497488Y-113601041D01*
X155557890Y-113576022D01*
X155664351Y-113504888D01*
X155754888Y-113414351D01*
X155826022Y-113307890D01*
X155851041Y-113247488D01*
X156455372Y-113851819D01*
X156551667Y-113704431D01*
X156551672Y-113704423D01*
X156649861Y-113480573D01*
X156709869Y-113243605D01*
X156730055Y-113000005D01*
X156730055Y-112999994D01*
X156709869Y-112756394D01*
X156649861Y-112519426D01*
X156551669Y-112295570D01*
X156455372Y-112148179D01*
X155851041Y-112752510D01*
X155826022Y-112692110D01*
X155754888Y-112585649D01*
X155664351Y-112495112D01*
X155557890Y-112423978D01*
X155497487Y-112398958D01*
X156102240Y-111794204D01*
X156102240Y-111794203D01*
X156059514Y-111760949D01*
X155844531Y-111644605D01*
X155844523Y-111644602D01*
X155613335Y-111565234D01*
X155372221Y-111525000D01*
X155127779Y-111525000D01*
X154886664Y-111565234D01*
X154655476Y-111644602D01*
X154655468Y-111644605D01*
X154440481Y-111760951D01*
X154397758Y-111794202D01*
X154397757Y-111794204D01*
X155002511Y-112398958D01*
X154942110Y-112423978D01*
X154835649Y-112495112D01*
X154745112Y-112585649D01*
X154673978Y-112692110D01*
X154648958Y-112752511D01*
X154044626Y-112148179D01*
X153948328Y-112295575D01*
X153850138Y-112519426D01*
X153790130Y-112756394D01*
X153769945Y-112999994D01*
X151015454Y-112999994D01*
X150922727Y-109599998D01*
X162394532Y-109599998D01*
X162394532Y-109600001D01*
X162414364Y-109826686D01*
X162414366Y-109826697D01*
X162473258Y-110046488D01*
X162473261Y-110046497D01*
X162569431Y-110252732D01*
X162569432Y-110252734D01*
X162699954Y-110439141D01*
X162860858Y-110600045D01*
X162860861Y-110600047D01*
X163047266Y-110730568D01*
X163253504Y-110826739D01*
X163253506Y-110826739D01*
X163253513Y-110826742D01*
X163258003Y-110827945D01*
X163313592Y-110860039D01*
X163653553Y-111200000D01*
X163647339Y-111200000D01*
X163545606Y-111227259D01*
X163454394Y-111279920D01*
X163379920Y-111354394D01*
X163327259Y-111445606D01*
X163300000Y-111547339D01*
X163300000Y-111553552D01*
X162620974Y-110874526D01*
X162620973Y-110874526D01*
X162569868Y-110947512D01*
X162569866Y-110947516D01*
X162473734Y-111153673D01*
X162473730Y-111153682D01*
X162414860Y-111373389D01*
X162414858Y-111373400D01*
X162395034Y-111599997D01*
X162395034Y-111600002D01*
X162414858Y-111826599D01*
X162414860Y-111826610D01*
X162473730Y-112046317D01*
X162473735Y-112046331D01*
X162569863Y-112252478D01*
X162620974Y-112325472D01*
X163300000Y-111646446D01*
X163300000Y-111652661D01*
X163327259Y-111754394D01*
X163379920Y-111845606D01*
X163454394Y-111920080D01*
X163545606Y-111972741D01*
X163647339Y-112000000D01*
X163653553Y-112000000D01*
X162974526Y-112679025D01*
X163047513Y-112730132D01*
X163047521Y-112730136D01*
X163253668Y-112826264D01*
X163253682Y-112826269D01*
X163473389Y-112885139D01*
X163473400Y-112885141D01*
X163699998Y-112904966D01*
X163700002Y-112904966D01*
X163926599Y-112885141D01*
X163926610Y-112885139D01*
X164146317Y-112826269D01*
X164146331Y-112826264D01*
X164352478Y-112730136D01*
X164425471Y-112679024D01*
X163746447Y-112000000D01*
X163752661Y-112000000D01*
X163854394Y-111972741D01*
X163945606Y-111920080D01*
X164020080Y-111845606D01*
X164072741Y-111754394D01*
X164100000Y-111652661D01*
X164100000Y-111646447D01*
X164779024Y-112325471D01*
X164830136Y-112252478D01*
X164926264Y-112046331D01*
X164926269Y-112046317D01*
X164985139Y-111826610D01*
X164985141Y-111826599D01*
X165004966Y-111600002D01*
X165004966Y-111599997D01*
X164985141Y-111373400D01*
X164985139Y-111373389D01*
X164926269Y-111153682D01*
X164926264Y-111153668D01*
X164830136Y-110947521D01*
X164830132Y-110947513D01*
X164779025Y-110874526D01*
X164100000Y-111553551D01*
X164100000Y-111547339D01*
X164072741Y-111445606D01*
X164020080Y-111354394D01*
X163945606Y-111279920D01*
X163854394Y-111227259D01*
X163752661Y-111200000D01*
X163746448Y-111200000D01*
X164086407Y-110860039D01*
X164141996Y-110827945D01*
X164143833Y-110827452D01*
X164146496Y-110826739D01*
X164352734Y-110730568D01*
X164539139Y-110600047D01*
X164700047Y-110439139D01*
X164830568Y-110252734D01*
X164926739Y-110046496D01*
X164985635Y-109826692D01*
X165005468Y-109600000D01*
X164985635Y-109373308D01*
X164926739Y-109153504D01*
X164830568Y-108947266D01*
X164700047Y-108760861D01*
X164700045Y-108760858D01*
X164539141Y-108599954D01*
X164352734Y-108469432D01*
X164352732Y-108469431D01*
X164146497Y-108373261D01*
X164146488Y-108373258D01*
X163926697Y-108314366D01*
X163926693Y-108314365D01*
X163926692Y-108314365D01*
X163926691Y-108314364D01*
X163926686Y-108314364D01*
X163700002Y-108294532D01*
X163699998Y-108294532D01*
X163473313Y-108314364D01*
X163473302Y-108314366D01*
X163253511Y-108373258D01*
X163253502Y-108373261D01*
X163047267Y-108469431D01*
X163047265Y-108469432D01*
X162860858Y-108599954D01*
X162699954Y-108760858D01*
X162569432Y-108947265D01*
X162569431Y-108947267D01*
X162473261Y-109153502D01*
X162473258Y-109153511D01*
X162414366Y-109373302D01*
X162414364Y-109373313D01*
X162394532Y-109599998D01*
X150922727Y-109599998D01*
X150879091Y-107999994D01*
X153769443Y-107999994D01*
X153769443Y-108000005D01*
X153789634Y-108243683D01*
X153789636Y-108243695D01*
X153849663Y-108480734D01*
X153947888Y-108704666D01*
X154081632Y-108909378D01*
X154116511Y-108947266D01*
X154247246Y-109089281D01*
X154440212Y-109239473D01*
X154655267Y-109355855D01*
X154655270Y-109355856D01*
X154886541Y-109435251D01*
X154886543Y-109435251D01*
X154886545Y-109435252D01*
X155127737Y-109475500D01*
X155127738Y-109475500D01*
X155372262Y-109475500D01*
X155372263Y-109475500D01*
X155613455Y-109435252D01*
X155844733Y-109355855D01*
X156059788Y-109239473D01*
X156252754Y-109089281D01*
X156418368Y-108909377D01*
X156552111Y-108704667D01*
X156650336Y-108480736D01*
X156710364Y-108243692D01*
X156730557Y-108000000D01*
X156710364Y-107756308D01*
X156650336Y-107519264D01*
X156552111Y-107295333D01*
X156418368Y-107090623D01*
X156418367Y-107090621D01*
X156252757Y-106910722D01*
X156252747Y-106910713D01*
X156059791Y-106760529D01*
X156059787Y-106760526D01*
X155844734Y-106644145D01*
X155844729Y-106644143D01*
X155613458Y-106564748D01*
X155432561Y-106534562D01*
X155372263Y-106524500D01*
X155127737Y-106524500D01*
X155079498Y-106532549D01*
X154886541Y-106564748D01*
X154655270Y-106644143D01*
X154655265Y-106644145D01*
X154440212Y-106760526D01*
X154440208Y-106760529D01*
X154247252Y-106910713D01*
X154247242Y-106910722D01*
X154081632Y-107090621D01*
X153947888Y-107295333D01*
X153849663Y-107519265D01*
X153789636Y-107756304D01*
X153789634Y-107756316D01*
X153769443Y-107999994D01*
X150879091Y-107999994D01*
X150803474Y-105227380D01*
X150821324Y-105159829D01*
X150872861Y-105112652D01*
X150927428Y-105100000D01*
X167076000Y-105100000D01*
X167143039Y-105119685D01*
G37*
%TD.AperFunction*%
%TD*%
M02*
